<svg viewBox="6.48 280.26 782.4599999999999 238.14" version="1.1" xmlns:xlink="http://www.w3.org/1999/xlink" xmlns="http://www.w3.org/2000/svg" style="max-height: 500px" width="782.4599999999999" height="238.14">
<defs>
<clipPath id="clip_0">
<path clip-rule="evenodd" d="M0 0H3375V3375H0Z" transform="matrix(.24,0,0,.24,0,0)"/>
</clipPath>
<clipPath id="clip_1">
<path clip-rule="evenodd" d="M0 0H3375V3375H0Z" transform="matrix(.24,0,0,.24,0,0)"/>
</clipPath>
<clipPath id="clip_2">
<path clip-rule="evenodd" d="M.00000000000035527138 738.28128H3375V2638.2813H.00000000000035527138Z" transform="matrix(.24,0,0,.24,0,0)"/>
</clipPath>
</defs>
<g clip-path="url(#clip_0)">
<path fill="#ffffff" d="M0 0H1080V1080H0Z" transform="matrix(.75,0,0,.75,0,0)"/>
</g>
<g clip-path="url(#clip_1)">
<path fill="#ffffff" d="M0 0H1080V1080H0Z" transform="matrix(.75,0,0,.75,0,0)"/>
</g>
<g clip-path="url(#clip_2)">
<path fill="#fdfdfd" d="M0 0C-175.076 0-350.152 .007-525.227-.062000004-527.916-.063-528.746 .35000003-528.744 3.302-528.651 133.241-528.656 263.181-528.721 393.12-528.723 395.72-528.471 396.688-525.408 396.687-174.882 396.598 175.645 396.6 526.171 396.66 528.692 396.66 529.508 396.367 529.506 393.488 529.407 263.424 529.407 133.36 529.501 3.296 529.503 .32900004 528.653-.062000004 525.977-.062000004 350.651 .007 175.326 0 0 0" transform="matrix(.7846847,0,0,-.7847552,393.67396,563.7832)"/>
<path d="M0 0C2.373 7.017 4.419 14.038 7.943 20.495 20.286 43.108 39.113 54.75 65.139 52.839 78.906 51.827 90.234 45.754 96.954 32.931 97.465 31.956 97.852 30.425 99.08 30.661 100.795 30.991 100.017 32.694 100.019 33.816 100.044 48.53 100.087 63.244 99.954 77.957 99.929 80.719 100.729 81.637 103.527 81.619 119.01 81.518 134.494 81.524 149.977 81.633 152.81 81.653 153.523 80.636 153.519 77.923 153.45 24.055 153.448-29.813 153.523-83.68 153.527-86.499 152.649-87.292 149.899-87.272 134.541-87.161 119.182-87.124 103.825-87.286 100.581-87.32 99.787-86.209 99.954-83.208 100.197-78.857 100.056-74.484 100.064-70.12 100.065-69.274 100.36-68.155 99.344-67.81 98.061-67.375 97.663-68.646 97.252-69.458 89.962-83.875 77.406-89.416 62.1-90.108 31.89-91.474 10.393-71.476 2.608-45.093-.724-33.803-1.425-22.308-.562-10.68-.39400003-8.418-.96800008-7.75-3.087-7.36-13.498-5.446-23.549-5.342-31.999-13.014-38.205-18.649-40.364-26.172-40.89-34.189-41.732-47.014-41.089-59.866-41.244-72.705-41.293-76.694-41.359-80.69-41.198-84.674-41.117-86.669-41.774-87.251-43.714-87.244-59.696-87.188-75.68-87.183-91.663-87.244-93.724-87.251-94.093-86.426-94.09-84.563-94.043-40.546-94.037 3.471-94.102 47.488-94.105 49.703-93.339 50.24-91.301 50.233-76.942 50.178-62.582 50.174-48.222 50.246-46.009 50.257-45.534 49.399-45.561 47.346-45.67 39.242-45.618 31.136-45.582 23.031-45.577 21.844-45.977 20.127-44.453 19.815-42.786 19.473-42.745 21.349-42.346 22.402-38.552 32.431-32.986 41.101-23.669 46.913-17.729 50.618-11.173 52.35-4.244 53.026-1.015 53.341 .111999999 52.42 .076000008 48.994-.094000007 32.664 0 16.332 0 0" transform="matrix(.7846847,0,0,-.7847552,496.5411,395.685)"/>
<path d="M0 0C0-21.573-.059000005-43.147 .066-64.719 .08400001-67.842-.83300009-68.738-3.942-68.708-19.05-68.559-34.162-68.526-49.27-68.72-52.843-68.766-53.754-67.544-53.544-64.243-53.282-60.144-53.441-56.017-53.426-51.902-53.422-50.929-53.047-49.565-54.155-49.233-55.529-48.822-55.909-50.304-56.395-51.248-63.412-64.873-75.372-70.564-89.923-71.478-119.921-73.364-141.217-55.104-149.467-30.311-157.512-6.136-157.004 17.982-144.583 40.665-132.504 62.725-113.305 73.453-87.989 71.39-74.239 70.27-62.931 64.132-56.375 51.18-55.939 50.317-55.523 49.021-54.396 49.239-52.873 49.532-53.445 51.011-53.442 52.044-53.429 56.657-53.394 61.273-53.511 65.884-53.565 67.979-52.74 68.781-50.685 68.778-34.701 68.755-18.717 68.75-2.733 68.81 .096 68.82 .019000002 67.092 .017 65.094-.010000001 43.396 0 21.698 0 0" transform="matrix(.7846847,0,0,-.7847552,183.52477,410.26335)"/>
<path d="M0 0C.13399999 25.158 8.98 46.053 30.599 60.187 46.841 70.806 64.963 73.576 84.025 71.185 101.363 69.01 116.34 62.089 128.105 48.977 137.536 38.466 142.649 26.011 144.678 12.067 146.894-3.162 145.127-17.787 138.597-31.662 128.457-53.208 111.124-65.791 87.917-69.964 68.216-73.506 49.077-71.367 31.459-61.138 15.153-51.67 6.061-37.011 1.892-18.953 .451-12.708 .139-6.383 0 0" transform="matrix(.7846847,0,0,-.7847552,303.8156,410.45039)"/>
<path d="M0 0C-14.359 .004-28.718-.083000008-43.075 .068-46.474 .104-47.371-.787-46.675-4.197-44.885-12.976-38.542-19.433-29.634-20.818-21.62-22.064-13.24-22.164-7.5690004-15.835-3.274-11.042 1.255-10.847 6.638-10.904 18.248-11.025 29.861-10.932 41.473-10.949 45.736-10.955 46.156-11.337 45.123-15.452 39.908-36.217 27.545-51.18 7.525-58.857-14.129-67.161-36.067-66.38-57.407-57.434-75.831-49.71-87.471-35.548-92.858-16.497-98.358 2.948-97.769 22.308-89.235 40.827-79.846 61.202-63.372 72.962-41.594 77.378-26.932 80.351-12.247 79.906 2.102 75.605 24.068 69.021 37.332 53.986 43.32 32.148 45.982 22.439 46.606 12.531 46.761 2.529 46.806-.374 45.191-.004 43.45-.004 28.967001-.004 14.483-.004 0 0" transform="matrix(.7846847,0,0,-.7847552,697.0352,416.04939)"/>
<path d="M0 0C-7.118 0-14.237 .076000008-21.354-.045-23.582-.082-24.662 .621-25.41 2.795-29.227 13.882-39.08 19.614-51.419 18.129-62.399 16.808-69.851 8.879-70.924-2.625-72.137-15.637-67.043-25.204-56.52-28.844-45.754-32.567-29.772-29.599-25.471-16.496-24.918-14.812-23.836-14.197-22.104-14.2-7.369-14.23 7.367-14.234 22.102-14.193 24.51-14.186 24.998-15.236 24.754-17.471 21.758-44.887 2.123-67.544-24.825-74.542-44.289-79.596-63.436-78.711-81.982-70.787-98.735-63.629-110.088-51.113-115.83-33.918-122.451-14.089-122.6 5.865-114.144 25.226-104.191 48.013-85.969 60.509-61.845 64.591-43.8 67.645-26.215 65.663-9.725 57.331 12.465 46.118 23.268 27.505 24.958 3.112 25.14 .49 24.058-.076000008 21.728-.047000003 14.487 .046000005 7.243-.012000001 0-.012000001V0Z" transform="matrix(.7846847,0,0,-.7847552,282.5583,405.6204)"/>
<path d="M0 0C-43.951 0-87.903 .033-131.854-.07000001-134.938-.07700001-135.797 .67700007-135.79 3.813-135.678 52.313-135.697 100.813-135.691 149.312-135.687 187.217-135.635 225.122-135.78 263.027-135.793 266.583-134.72 267.276-131.412 267.257-106.565 267.11-81.717 267.069-56.872 267.241-53.351 267.265-52.781 266.153-52.87 263.035-53.076 255.737-52.926 255.733-60.402 255.733-80.255 255.733-100.109 255.664-119.961 255.804-123.087 255.826-124.193 255.297-124.188 251.811-124.074 173.009-124.073 94.206-124.189 15.403-124.195 11.882-123.023 11.421-119.936 11.424-36.279 11.502 47.379 11.486 131.036 11.486 135.827 11.486 135.827 11.485 135.829 6.682 135.832 0 135.832 0 129.232 0H0Z" transform="matrix(.7846847,0,0,-.7847552,122.02682,503.3067)"/>
<path d="M0 0C0-43.272-.036000004-86.545 .076000008-129.817 .08500001-132.937-.67300006-133.768-3.797-133.671-11.435-133.436-11.441-133.605-11.441-126.122-11.441-41.074-11.411 43.974-11.538 129.022-11.544 132.865-10.564 133.824-6.829 133.647-.011000001 133.325 0 133.557 0 126.824 0 84.549 0 42.275 0 0" transform="matrix(.7846847,0,0,-.7847552,780.9667,398.47148)"/>
<path fill="#0c0c0c" d="M0 0C6.597 5.015 9.32 4.86 13.801-.961 14.193-.405 14.49 .16399999 14.922 .602 17.248 2.967 19.96 4.405 23.313 3.166 26.816 1.872 27.452-1.201 27.481-4.46 27.525-9.44 27.521-14.42 27.476-19.399 27.467-20.371 28.031-21.792 26.135-21.826 24.294-21.859 24.656-20.53 24.65-19.476 24.627-14.621 24.668-9.765 24.624-4.9110004 24.586-.61800006 23.235 1.323 20.401 1.339 17.52 1.3540001 13.804-2.056 13.705-5.14 13.554-9.866 13.684-14.6 13.631-19.33 13.619-20.317 14.155-21.769 12.304-21.813 10.415-21.857 10.95-20.396 10.940001-19.41 10.894-14.68 10.951-9.949 10.903-5.219 10.857-.69100007 9.457 1.353 6.546 1.329 3.559 1.304-.048000006-2.33-.115-5.598-.208-10.202-.11-14.81-.16499999-19.415-.17600002-20.37 .44-21.836-1.493-21.821-3.323-21.806-2.924-20.444-2.928-19.407-2.953-12.934-2.971-6.46-2.91 .013-2.9 .989-3.588 2.5180002-1.9330001 2.789 .142 3.128-.666 1.124 0 0" transform="matrix(.7846847,0,0,-.7847552,618.80038,492.10383)"/>
<path fill="#0b0b0b" d="M0 0C6.851 5.01 9.85 4.846 13.547-.757 15.265 .636 16.644001 2.46 18.873 3.169 22.988 4.476 26.91 2.566 27.234-1.671 27.706-7.865 27.48-14.111 27.573-20.334 27.59-21.453 27.108-21.909 26.007-21.806 24.703-21.685 24.892-20.709 24.89-19.872 24.875-15.015 24.914-10.157 24.865-5.3 24.819-.727 23.468 1.292 20.565 1.33 17.385 1.37 13.865-2.315 13.825-5.843 13.773-10.451 13.827-15.06 13.795-19.668 13.789-20.565 14.197-21.771 12.561-21.829 10.81-21.891 10.961-20.702 10.962-19.565 10.965-14.832 10.985-10.099 10.953-5.366 10.92-.66800007 9.688 1.2820001 6.811 1.331 3.6560002 1.385 .13599999-2.279 .07100001-5.848-.007-10.081 .12100001-14.319 .001-18.55-.031000002-19.689 .96000006-21.656-1.286-21.768-3.708-21.889-2.668-19.82-2.6859999-18.73-2.79-12.629-2.779-6.524-2.696-.42200003-2.681 .66400006-3.545 2.343-1.829 2.77 .42400003 3.331-.79399999 .806 0 0" transform="matrix(.7846847,0,0,-.7847552,562.53518,492.10337)"/>
<path fill="#080808" d="M0 0C6.056 5.177 9.631 5.006 13.316-.58199998 14.405 .37600003 15.394 1.432 16.557 2.238 21.515 5.672 26.988 3.15 27.261-2.851 27.516-8.443 27.345-14.054 27.349-19.657 27.349-20.619 27.587-21.745 25.966-21.664 24.42-21.587 24.649-20.486 24.646-19.527 24.63-14.671 24.682-9.814 24.612-4.959 24.546-.402 23.122 1.587 20.181 1.5 17.095 1.409 13.701-2.141 13.65-5.49 13.581-9.972 13.667-14.456 13.601-18.937 13.586-20.011 14.27-21.718 12.134-21.637 10.005-21.557 10.872-19.835 10.851-18.812 10.759-14.331 10.828-9.848 10.805-5.365 10.78-.513 9.433 1.5699999 6.424 1.5 3.298 1.428-.18200001-2.337-.237-5.852-.30400003-10.084-.17800002-14.321-.30600003-18.55-.33900003-19.636 .77-21.682-1.679-21.599-3.716-21.529-2.867-19.735-2.881-18.697-2.96-12.473-2.959-6.246-2.881-.021000002-2.868 1.03-3.694 2.771-1.745 2.953 .216 3.135-.898 1.036 0 0" transform="matrix(.7846847,0,0,-.7847552,490.22755,492.23204)"/>
<path fill="#080808" d="M0 0C1.369 1.164 2.401 2.284 3.648 3.06 8.479 6.062 13.599 3.621 13.895-2.027 14.194-7.74 14.002-13.479 14.005-19.206 14.006-20.024 14.239-21.015 12.877-21.085 11.464-21.158 11.288-20.331 11.292-19.201 11.312-14.22 11.342-9.239 11.266-4.26 11.222-1.322 11.074 1.752 7.088 2.045 4.053 2.268 .38400004-1.375 .318-4.667 .22399999-9.396 .287-14.129 .291-18.861 .29200004-20.008 .416-21.207-1.331-21.085-2.934-20.974-2.506-19.754-2.512-18.859-2.545-14.128-2.509-9.396-2.536-4.664-2.563 .027000003-3.784 1.983-6.668 2.078-9.774 2.18-13.497-1.543-13.569-5.03-13.663-9.635-13.573-14.243-13.6119999-18.85-13.62-19.73-13.16-20.991-14.774-21.069-16.604-21.157-16.247-19.792-16.25-18.743-16.268-12.393-16.299-6.042-16.222 .307-16.208 1.403-17.031 3.091-15.318 3.5-13.064 4.037-14.39 1.446-13.377 .789-6.659 5.758-3.741 5.5950005 0 0" transform="matrix(.7846847,0,0,-.7847552,421.9022,492.6832)"/>
<path fill="#070707" d="M0 0C0-3.675-.019000002-6.6470005 .009000001-9.619 .020000002-10.779-.445-11.694-1.586-11.764-3.259-11.867-2.619-10.421-2.6230002-9.645-2.672 .187-2.676 10.02-2.625 19.853-2.619 20.826-3.2940002 22.304-1.661 22.646 .35200004 23.066-.69100007 20.842 .281 20.13 1.076 20.737 1.8180001 21.383 2.635 21.913 7.468 25.048 13.199 23.277 15.155 17.881 16.906 13.049 16.903 8.076 15.157 3.242 13.112-2.419 7.766-4.302 2.422-1.4300001 1.795-1.093 1.194-.707 0 0" transform="matrix(.7846847,0,0,-.7847552,310.6811,507.67243)"/>
<path fill="#0a0a0a" d="M0 0C-1.961-2.335-4.192-3.506-6.996-3.5640002-11.087-3.6490002-13.995-1.553-14.698 2.045-15.515 6.23-13.784 9.738-10.07 11.202-8.202 11.939-6.198 12.015-4.21 12.244-2.82 12.404-.36900003 10.683-.14 13.72 .07700001 16.578-.319 19.292-3.845 20.112-6.008 20.615-8.048 20.024-10.114 19.554-11 19.353-12.138 18.408-12.664 19.857-13.32 21.664-11.487 21.481-10.65 21.757-8.641 22.42-6.54 22.776-4.386 22.605 .07800001 22.253 2.4720002 19.96 2.648 15.463 2.808 11.357 2.713 7.241 2.712 3.129 2.712 1.745 2.671 .32400004 3.642-.774 4.256-1.47 4.989-2.132 4.169-2.961 3.113-4.029 2.372-2.799 1.708-2.259 1.058-1.73 .656-.898 0 0" transform="matrix(.7846847,0,0,-.7847552,712.4041,507.0218)"/>
<path fill="#080808" d="M0 0C-1.498 0-3.015-.15300001-4.489 .031000002-7.961 .46400003-8.52-.982-7.535-3.986-5.768-9.372-1.449-11.123 4.074-8.569 4.939-8.169 6.015-6.66 6.789-8.403 7.434-9.854 5.798-10.173 4.916-10.653-1.508-14.144-8.529-11.195-10.42-4.169-11.516-.097-11.385 3.987-9.787 7.9300005-8.022 12.284-4.42 14.539-.149 14.09 4.047 13.648 6.79 11 7.823 6.379 7.986 5.65 8.09 4.908 8.24 4.177 8.873 1.097 8.099-.625 4.487-.039 3.027 .198 1.498 0 0 0" transform="matrix(.7846847,0,0,-.7847552,450.2763,500.3756)"/>
<path fill="#080808" d="M0 0C-1.248 0-2.496 .001-3.744 0-8.297-.006-8.716-.61300006-7.079-4.832-5.219-9.628-.986-10.97 4.351-8.488 5.146-8.119 6.064-6.83 6.86-8.203 7.74-9.718 6.129-10.056 5.263-10.555-1.038-14.185-8.259-11.328-10.212-4.381-11.39-.192-11.265 4.014-9.574 8.069-7.826 12.26-4.36 14.443-.21800001 14.107 3.991 13.765 6.866 11.123 7.938 6.598 8.082 5.992 8.193 5.378 8.29 4.763 9.031 .059000005 8.981 .003 4.118 0 2.746-.001 1.373 0 0 0" transform="matrix(.7846847,0,0,-.7847552,601.2748,500.37538)"/>
<path fill="#090909" d="M0 0C-1.372 0-2.744 .002-4.116 0-8.42-.010000001-8.81-.59900006-7.244-4.722-5.454-9.439-1.176-10.971 3.786-8.752 4.736-8.327 5.9440004-6.504 6.804-8.434 7.499-9.994 5.577-10.317 4.586-10.812-1.984-14.096-8.913-10.955-10.532-3.832-11.454 .228-11.379 4.356-9.662 8.271-7.86 12.381-4.303 14.517-.16499999 14.095 3.834 13.688 6.732 11.047 7.792 6.782 8.001 5.941 7.99 5.048 8.172 4.198 8.829 1.132 8.11-.60400006 4.485-.038000004 3.024 .191 1.497 0 0 0" transform="matrix(.7846847,0,0,-.7847552,339.5795,500.37586)"/>
<path fill="#080808" d="M0 0C-.001-8.569-4.325-13.583-11.269-13.07-17.503-12.61-21.274-6.988-20.735 1.043-20.217 8.78-16.052 13.344-9.772 13.056-3.591 12.774 .001 7.974 0 0" transform="matrix(.7846847,0,0,-.7847552,665.1383,499.53468)"/>
<path fill="#0e0e0e" d="M0 0C1.112 .83100005 2.045 1.6630001 3.099 2.295 8.86 5.748 14.4 2.898 14.648-3.77 14.841-8.99 14.708-14.222 14.699-19.449 14.6970009-20.518 15.012-21.837 13.177-21.751 11.318-21.664 11.872-20.258 11.8619999-19.276001 11.814-14.547 11.86-9.818 11.83-5.089 11.8-.54800006 10.555 1.255 7.432 1.41 3.973 1.581-.127-1.928-.215-5.358-.333-9.96-.226-14.567-.267-19.171-.277-20.291 .262-21.896-1.8610001-21.738-3.6890002-21.602-3.091-20.159-3.098-19.186-3.144-12.839-3.167-6.491-3.076-.146-3.062 .89199998-3.999 2.6100002-2.041 2.887-.020000002 3.173-.999 1.02 0 0" transform="matrix(.7846847,0,0,-.7847552,274.2181,492.16709)"/>
<path fill="#131313" d="M0 0C-1.421-1.146-2.663-2.539-4.528-3.147-9.746-4.848-14.083-2.309-14.387 3.134-14.7 8.726-14.483 14.347-14.514 19.955-14.52 21.065-14.357 21.928-12.921 21.876-11.308 21.818-11.649 20.634-11.643 19.721-11.611 14.86-11.646 9.999-11.615 5.138-11.586 .54-10.192-1.257-6.724-1.279-3.252-1.301 .24100001 2.027 .29900003 5.574 .373 10.185 .29200004 14.798 .33900003 19.409 .349 20.4-.168 21.839 1.688 21.865 3.495 21.89 3.155 20.514 3.16 19.467 3.186 13.111 3.216 6.7530004 3.133 .397 3.119-.679 3.991-2.354 2.201-2.758-.058000007-3.267 1.194-.636 0 0" transform="matrix(.7846847,0,0,-.7847552,259.09904,507.00633)"/>
<path fill="#0a0a0a" d="M0 0C-1.6270001-1.256-2.848-2.661-4.69-3.279-10.05-5.077-14.362-2.3140002-14.526 3.316-14.681 8.663-14.592 14.017-14.568 19.368-14.563 20.392-14.958 21.813-13.085 21.678-11.529 21.566-11.899 20.328-11.891 19.429-11.851 14.576-11.913 9.722-11.849 4.869-11.789 .333-10.297-1.487-6.85-1.465-3.51-1.444 .014 1.727 .103 5.071 .229 9.797 .12100001 14.528 .15200001 19.257 .15900001 20.305-.185 21.723 1.603 21.672 3.475 21.62 2.825 20.097 2.8330003 19.15 2.8899999 12.679 2.898 6.208 2.824-.26299999 2.813-1.194 3.618-2.783 1.8310001-2.9490002-.267-3.1430002 .929-1.077 0 0" transform="matrix(.7846847,0,0,-.7847552,396.55137,506.87507)"/>
<path fill="#0a0a0a" d="M0 0C-2.562-.039-4.927 .64300009-7.09 1.992-7.688 2.365-8.539 2.77-8.12 3.676-7.666 4.6610004-6.893 4.698-5.9700005 4.112-3.805 2.736-1.437 2.042 1.146 2.397 3.54 2.725 5.512 3.733 5.964 6.339 6.445 9.114 5.013 10.844 2.482 11.76 .377 12.522-1.786 13.138-3.846 14.003-6.365 15.061-7.804 16.945-7.6480004 19.824-7.494 22.664-5.86 24.398-3.381 25.413 .103 26.839 3.471 26.278 6.6809999 24.521 7.375 24.141 8.421 23.75 7.699 22.567 6.989 21.401 6.213 22.155 5.487 22.54 3.204 23.752 .85300007 24.36-1.697 23.458-3.493 22.822-4.71 21.701-4.76 19.678-4.8059999 17.805-3.738 16.654-2.103 16.015-.59800007 15.427 .95600005 14.963 2.488 14.444 7.544 12.73 9.519 10.207 8.92 6.226 8.338 2.35 4.923-.033 0 0" transform="matrix(.7846847,0,0,-.7847552,729.16348,509.81883)"/>
<path fill="#0b0b0b" d="M0 0C0 2.368 .025000003 4.737-.007 7.105-.036000004 9.191 .784 11.927-3.079 11.236-3.714 11.123-4.303 11.515-4.23 12.3220009-4.142 13.297-3.407 13.566-2.627 13.424 .024000003 12.943 .17100002 14.488 .012000001 16.453-.505 22.836 5.029 25.246 10.911 23.207 11.661 22.947 12.364 22.659 12.119 21.69 11.866 20.688 11.077 20.828 10.318 20.976 9.221 21.189 8.12 21.578 7.025 21.567 3.505 21.531 3.015 19.213 2.775 16.261 2.501 12.902 4.561 13.528 6.496 13.417 7.415 13.364 9.119 14.176 8.966 12.244 8.831 10.534 7.187 11.116 6.269 11.239 3.378 11.627 2.675 10.459 2.788 7.706 3.007 2.354 2.8930002-3.012 2.816-8.372 2.801-9.419 3.6-11.151 1.525-11.226-.92-11.315 .1-9.34 .045-8.225-.091000009-5.489 0-2.742 0 0" transform="matrix(.7846847,0,0,-.7847552,371.1204,500.39765)"/>
<path fill="#151515" d="M0 0C0 4.471 .024000003 8.943-.014 13.414-.026 14.856-.062000004 16.425 1.8659999 16.297 3.569 16.184 2.823 14.561 2.83 13.6380009 2.896 4.82 2.865-3.999 2.878-12.817 2.881-14.792 2.52-17.062 5.684-16.88 6.467-16.834 6.849-17.332 6.862-17.986 6.876-18.681 6.326-18.988 5.679-19.194 2.839-20.094 .13499999-17.994 .045-14.531-.080000009-9.690001 .014-4.844 .014 0H0Z" transform="matrix(.7846847,0,0,-.7847552,533.9682,494.69624)"/>
<path fill="#161616" d="M0 0C1.561 2.685 3.662 4.255 6.722 4.102 7.637 4.056 8.525 3.813 8.539 2.679 8.554 1.513 7.709 1.471 6.758 1.331 2.02 .635-.226-2.0740002-.378-7.339-.48200003-10.939-.318-14.549-.45400004-18.147-.49600003-19.261 .546-21.196-1.778-21.299-4.182-21.405-3.255-19.424-3.271-18.302-3.357-12.215-3.368-6.125-3.262-.038000004-3.242 1.104-4.235 3.028-2.193 3.297 .067 3.594-1.321 1.121 0 0" transform="matrix(.7846847,0,0,-.7847552,676.5491,492.4999)"/>
<path fill="#161616" d="M0 0C1.488 2.672 3.594 4.243 6.634 4.145 7.538 4.115 8.46 3.916 8.538 2.801 8.619 1.665 7.83 1.517 6.846 1.359 1.994 .58-.21900001-2.014-.374-7.216-.492-11.188-.39000003-15.168-.414-19.144-.42000003-20.076-.120000008-21.217-1.688-21.309-3.431-21.411-3.317-20.252-3.315-19.101-3.307-12.639-3.356-6.177-3.266 .283-3.252 1.327-4.188 3.08-2.283 3.342 .040000004 3.66-1.274 1.262 0 0" transform="matrix(.7846847,0,0,-.7847552,357.26274,492.5278)"/>
<path fill="#191919" d="M0 0C-.001 3.231 .003 6.462-.003 9.694-.0050000005 10.86-.028 12.004 1.6630001 11.924 3.32 11.845 2.834 10.574 2.839 9.713 2.88 2.878 2.867-3.957 2.858-10.792 2.856-11.749 3.089-12.852 1.492-12.827 .026-12.805-.007-11.871-.004-10.812 .008-7.208 .001-3.604 0 0" transform="matrix(.7846847,0,0,-.7847552,521.7948,499.19017)"/>
<path d="M0 0C0-3.353 .015000001-6.706-.009000001-10.059-.016-11.115 .32200004-12.457-1.4990001-12.39-3.104-12.331-2.707-11.11-2.71-10.211-2.7350002-3.505-2.74 3.2-2.7059999 9.906-2.701 10.903-3.17 12.374-1.281 12.24 .51 12.114-.044000005 10.669-.024000003 9.686 .040000004 6.458 0 3.229 0 0" transform="matrix(.7846847,0,0,-.7847552,692.4942,499.48945)"/>
<path fill="#0e0e0e" d="M0 0C-.826-2-1.734-4.161-2.609-6.335-2.969-7.228-3.527-7.985-4.522-7.547-5.422-7.149-4.864-6.238-4.702-5.585-4.18-3.476-3.262-1.515-4.226 .83100005-4.775 2.167-3.5770002 3.142-2.083 3.0970002-.21900001 3.042-.021000002 1.7019999 0 0" transform="matrix(.7846847,0,0,-.7847552,466.64167,508.56376)"/>
<path fill="#212121" d="M0 0C-.272-1.26-1.066-1.882-2.354-1.719-3.5019999-1.574-4.072-.779-3.989 .32000003-3.905 1.421-3.234 2.12-2.057 2.087-.75 2.051-.067 1.329 0 0" transform="matrix(.7846847,0,0,-.7847552,524.529,483.1877)"/>
<path fill="#1f1f1f" d="M0 0C-.142-1.071-.60800006-1.869-1.806-1.898-3.084-1.929-3.973-1.314-3.9720002 .009000001-3.971 1.335-3.078 1.934-1.7969999 1.906-.581 1.879-.148 1.062 0 0" transform="matrix(.7846847,0,0,-.7847552,692.9387,483.0586)"/>
<path fill="#fefefe" d="M0 0C-.060000004-11.164-5.247-19.511-14.183-22.828-23.754-26.38-35.114-23.84-41.348-16.752-49.183-7.8450005-48.815 9.47-40.608 18.036-32.819 26.164-17.559 27.036-8.33 19.88-2.7979999 15.59 .047000003 8.799 0 0" transform="matrix(.7846847,0,0,-.7847552,575.0676,410.66108)"/>
<path fill="#fefefe" d="M0 0C-.48900003 22.859 21.102 29.604 35.527 22.068 41.177 19.116 44.356 14.205 46.05 8.178 49.439-3.882 44.883-17.073 35.394-21.955 21.104-29.308-.258-22.797 0 0" transform="matrix(.7846847,0,0,-.7847552,104.79293,410.32243)"/>
<path fill="#fefefe" d="M0 0C-.065000008-14.725-9.314-24.11-23.662-24.01-38.013-23.909-47.32-14.299-47.167 .26299999-47.011 15.109-37.696 24.37-23.024 24.268-9.038 24.171 .065000008 14.577 0 0" transform="matrix(.7846847,0,0,-.7847552,379.35539,410.3374)"/>
<path fill="#fefefe" d="M0 0C-6.492-.002-12.993 .195-19.473-.080000009-23.075-.23300001-23.157 1.238-22.211 3.875-19.14 12.44-12.777 16.802-4.002 17.824 7.526 19.168 18.488 15.295 22.305 4.277 23.74 .13499999 23.624-.0050000005 19.102 0 12.735 .008 6.367 .002 0 0" transform="matrix(.7846847,0,0,-.7847552,678.50906,401.1804)"/>
<path fill="#fcfcfc" d="M0 0C.29900003 2.898-1.026 6.401 2.396 8.938 6.608 12.06 11.141 10.86 12.65 5.822 13.889 1.6819999 13.852-2.554 12.418-6.645 11.288-9.87 8.833-11.337 5.396-10.806 2.007-10.284 .035-7.879 .002-4.406-.011000001-3.038 0-1.671 0 0" transform="matrix(.7846847,0,0,-.7847552,310.68376,499.43696)"/>
<path fill="#fcfcfc" d="M0 0C-.030000002-4.403-2.006-7.086-5.443-7.572-8.108-7.949-10.555-7.398-11.449-4.517-12.361-1.5780001-11.968 1.163-8.875 2.795-6.452 4.073-3.761 3.95-1.24 3.5970002 1.245 3.249-.798 .84700009 0 0" transform="matrix(.7846847,0,0,-.7847552,712.3468,502.02586)"/>
<path fill="#fbfbfb" d="M0 0C-.621-.001-1.243-.001-1.8640001-.001-6.936 .001-7.673 1.349-5.16 6.027-3.432 9.245-.169 10.488 3.014 9.14 5.582 8.053 7.774 3.639 7.188 1.051 6.951 .002 6.334 .009000001 5.593 .0050000005 3.729-.006 1.8640001 .001 0 0" transform="matrix(.7846847,0,0,-.7847552,449.0175,498.65367)"/>
<path fill="#fcfcfc" d="M0 0C-.994-.001-1.9890001-.002-2.983-.001-7.531 .004-7.997 .749-6.192 5.133-4.698 8.762-1.533 10.434 1.825 9.368 4.792 8.426 7.006 4.488 6.578 1.296 6.409 .036000004 5.762-.008 4.847-.002 3.231 .009000001 1.6159999 .001 0 0" transform="matrix(.7846847,0,0,-.7847552,600.6183,498.6539)"/>
<path fill="#fbfbfb" d="M0 0C-.498-.001-1.005-.066-1.4909999 .010000001-3.138 .27-5.555-.91300007-6.287 .661-7.149 2.512-6.048 4.776-4.905 6.606-3.159 9.399-.092 10.378 2.865 9.161 5.483 8.084 7.658 3.8 7.16 1.107 6.907-.262 6.007 .041 5.224 .018000002 3.484-.034 1.742 .001 0 0" transform="matrix(.7846847,0,0,-.7847552,338.40187,498.6532)"/>
<path fill="#fdfdfd" d="M0 0C.021000002-2.619-.111-4.597-.84700009-6.498-1.993-9.461-4.034-11.221-7.304-11.267-10.762-11.317-12.948-9.479-14.019-6.34-15.305-2.57-15.28 1.289-14.073 5.063-13.073 8.192-10.912 10.187-7.489 10.22-3.904 10.255-1.763 8.261-.661 4.923-.059000005 3.099-.043 1.25 0 0" transform="matrix(.7846847,0,0,-.7847552,662.83407,499.1475)"/>
</g>
<path fill-opacity="0" d="M.00000000000008526513 185.10752H810V640.73257H.00000000000008526513Z" transform="matrix(1,0,0,-1,0,817.92)"/>
</svg>